<svg xmlns="http://www.w3.org/2000/svg" width="512" height="512" viewBox="0 0 512 512" version="1.1"><path d="M 61.250 213.716 C 62.763 213.945, 65.237 213.945, 66.750 213.716 C 68.263 213.487, 67.025 213.300, 64 213.300 C 60.975 213.300, 59.737 213.487, 61.250 213.716 M 8 368.318 C 8 390.871, 8.983 395.078, 15.860 401.956 C 24.688 410.783, 1.309 410, 256 410 C 510.691 410, 487.312 410.783, 496.140 401.956 C 503.017 395.078, 504 390.871, 504 368.318 L 504 350 256 350 L 8 350 8 368.318 M 129.422 470.418 C 127.730 471.155, 124.932 473.472, 123.205 475.567 C 115.952 484.367, 118.998 497.369, 129.421 502.104 C 133.321 503.875, 138.888 503.956, 256 503.956 C 373.112 503.956, 378.679 503.875, 382.579 502.104 C 396.154 495.938, 395.978 476.067, 382.298 470.351 C 377.526 468.357, 134.007 468.422, 129.422 470.418" stroke="none" fill="#b3c1c9" fill-rule="evenodd"/><path d="M 176.992 66.750 L 154.500 89.500 177.250 67.008 C 189.762 54.638, 200 44.400, 200 44.258 C 200 43.549, 197.891 45.611, 176.992 66.750 M 334 66.500 C 346.366 78.875, 356.708 89, 356.983 89 C 357.258 89, 347.366 78.875, 335 66.500 C 322.634 54.125, 312.292 44, 312.017 44 C 311.742 44, 321.634 54.125, 334 66.500 M 192.490 75.250 L 173.500 94.500 192.750 75.510 C 210.635 57.866, 212.452 56, 211.740 56 C 211.597 56, 202.935 64.662, 192.490 75.250 M 318.500 75 C 328.939 85.450, 337.705 94, 337.980 94 C 338.255 94, 329.939 85.450, 319.500 75 C 309.061 64.550, 300.295 56, 300.020 56 C 299.745 56, 308.061 64.550, 318.500 75 M 177 121.500 C 188.815 133.325, 198.708 143, 198.983 143 C 199.258 143, 189.815 133.325, 178 121.500 C 166.185 109.675, 156.292 100, 156.017 100 C 155.742 100, 165.185 109.675, 177 121.500 M 333.991 121.750 L 312.500 143.500 334.250 122.009 C 346.212 110.189, 356 100.401, 356 100.259 C 356 99.549, 353.961 101.540, 333.991 121.750 M 61.250 170.716 C 62.763 170.945, 65.237 170.945, 66.750 170.716 C 68.263 170.487, 67.025 170.300, 64 170.300 C 60.975 170.300, 59.737 170.487, 61.250 170.716 M 167.323 213.750 C 185.925 213.902, 216.075 213.902, 234.323 213.749 C 252.570 213.597, 237.350 213.472, 200.500 213.472 C 163.650 213.472, 148.720 213.597, 167.323 213.750 M 61.250 230.716 C 62.763 230.945, 65.237 230.945, 66.750 230.716 C 68.263 230.487, 67.025 230.300, 64 230.300 C 60.975 230.300, 59.737 230.487, 61.250 230.716 M 168.323 230.750 C 186.375 230.902, 215.625 230.902, 233.323 230.749 C 251.020 230.596, 236.250 230.471, 200.500 230.472 C 164.750 230.472, 150.270 230.597, 168.323 230.750 M 61.250 298.716 C 62.763 298.945, 65.237 298.945, 66.750 298.716 C 68.263 298.487, 67.025 298.300, 64 298.300 C 60.975 298.300, 59.737 298.487, 61.250 298.716 M 167.323 315.750 C 185.925 315.902, 216.075 315.902, 234.323 315.749 C 252.570 315.597, 237.350 315.472, 200.500 315.472 C 163.650 315.472, 148.720 315.597, 167.323 315.750 M 186.985 414.250 C 186.977 416.587, 186.306 421.317, 185.494 424.760 C 181.140 443.227, 167.286 457.959, 147 465.693 L 138.500 468.934 256 468.934 L 373.500 468.934 365 465.693 C 344.714 457.959, 330.860 443.227, 326.506 424.760 C 325.694 421.317, 325.023 416.587, 325.015 414.250 L 325 410 256 410 L 187 410 186.985 414.250" stroke="none" fill="#97aab2" fill-rule="evenodd"/><path d="M 61.250 213.716 C 62.763 213.945, 65.237 213.945, 66.750 213.716 C 68.263 213.487, 67.025 213.300, 64 213.300 C 60.975 213.300, 59.737 213.487, 61.250 213.716 M 8 368.318 C 8 390.871, 8.983 395.078, 15.860 401.956 C 24.688 410.783, 1.309 410, 256 410 C 510.691 410, 487.312 410.783, 496.140 401.956 C 503.017 395.078, 504 390.871, 504 368.318 L 504 350 256 350 L 8 350 8 368.318 M 129.422 470.418 C 127.730 471.155, 124.932 473.472, 123.205 475.567 C 115.952 484.367, 118.998 497.369, 129.421 502.104 C 133.321 503.875, 138.888 503.956, 256 503.956 C 373.112 503.956, 378.679 503.875, 382.579 502.104 C 396.154 495.938, 395.978 476.067, 382.298 470.351 C 377.526 468.357, 134.007 468.422, 129.422 470.418" stroke="none" fill="#b3c1c9" fill-rule="evenodd"/><path d="M 267.174 173.314 C 265.906 174.664, 265 176.922, 265 178.733 C 265 187.791, 265.866 188, 303.374 188 L 334.847 188 337.923 185.411 C 341.899 182.065, 342.159 177.069, 338.545 173.455 L 336.091 171 302.720 171 L 269.349 171 267.174 173.314 M 406.308 214.010 C 402.761 215.438, 400.679 219.474, 401.428 223.467 C 402.610 229.770, 403.639 230, 430.641 230 C 443.948 230, 455.565 229.720, 456.455 229.379 C 457.346 229.037, 458.761 227.429, 459.600 225.806 C 461.751 221.647, 460.581 217.325, 456.655 214.931 C 453.780 213.178, 451.504 213.013, 431 213.067 C 418.625 213.100, 407.514 213.524, 406.308 214.010 M 267.455 258.455 C 265.760 260.149, 265 262.021, 265 264.500 C 265 266.979, 265.760 268.851, 267.455 270.545 L 269.909 273 303 273 L 336.091 273 338.545 270.545 C 340.240 268.851, 341 266.979, 341 264.500 C 341 262.021, 340.240 260.149, 338.545 258.455 L 336.091 256 303 256 L 269.909 256 267.455 258.455 M 404.025 300.975 C 399.657 305.343, 400.626 311.986, 406.030 314.721 C 409.535 316.494, 452.490 316.482, 456 314.706 C 461.288 312.031, 462.196 305.124, 457.799 301.028 C 455.734 299.104, 454.354 299, 430.811 299 C 407.440 299, 405.885 299.115, 404.025 300.975" stroke="none" fill="#ff4d78" fill-rule="evenodd"/><path d="M 132.229 214.669 C 130.735 215.270, 128 220.254, 128 222.374 C 128 223.184, 129.165 225.231, 130.589 226.923 L 133.178 230 200.339 229.968 C 251.557 229.944, 267.877 229.647, 269.087 228.718 C 271.776 226.654, 273.171 223.054, 272.487 219.943 C 271.128 213.752, 274.078 213.992, 200.527 214.079 C 163.662 214.122, 132.928 214.388, 132.229 214.669 M 130.923 301.923 C 129.315 303.531, 128 305.578, 128 306.473 C 128 308.944, 130.722 313.679, 132.545 314.379 C 133.435 314.720, 164.177 315, 200.859 315 C 273.556 315, 270.979 315.203, 272.443 309.370 C 273.336 305.814, 271.453 301.528, 268.385 300.130 C 266.623 299.327, 246.821 299, 199.876 299 L 133.846 299 130.923 301.923" stroke="none" fill="#f9dc4e" fill-rule="evenodd"/><path d="M 105.635 173.073 C 103.687 174.605, 103 176.056, 103 178.638 C 103 183.383, 104.367 185.584, 108.128 186.895 C 112.407 188.386, 237.691 188.448, 241.603 186.961 C 247.420 184.749, 248.926 177.835, 244.545 173.455 L 242.091 171 175.180 171 C 109.003 171, 108.241 171.023, 105.635 173.073 M 295.242 214.471 C 289.733 216.904, 288.632 223.632, 293.025 228.025 C 294.928 229.928, 296.511 230, 336.418 230 C 359.198 230, 378.565 229.720, 379.455 229.379 C 381.393 228.635, 384 223.890, 384 221.105 C 384 220.009, 382.914 217.849, 381.587 216.306 L 379.175 213.500 338.837 213.267 C 305.550 213.074, 297.931 213.284, 295.242 214.471 M 105.475 258.434 C 102.115 261.794, 102.106 267.197, 105.455 270.545 L 107.909 273 175 273 L 242.091 273 244.545 270.545 C 247.568 267.523, 247.814 262.227, 245.089 258.861 L 243.177 256.500 175.564 256.229 L 107.950 255.959 105.475 258.434 M 293.913 300.282 C 288.983 304.067, 289.198 310.930, 294.345 314.069 C 297.319 315.882, 299.773 315.992, 337 315.982 C 366.593 315.973, 377.119 315.657, 378.970 314.721 C 384.374 311.986, 385.343 305.343, 380.975 300.975 C 379.070 299.070, 377.510 299.001, 337.250 299.032 C 306.008 299.056, 295.101 299.370, 293.913 300.282" stroke="none" fill="#4ed8d5" fill-rule="evenodd"/><path d="M 25.500 9.774 C 18.626 12.057, 11.977 18.837, 9.722 25.865 C 8.122 30.848, 8 42.528, 8 190.115 L 8 349 256 349 L 504 349 504 190.182 C 504 14.834, 504.385 25.315, 497.651 17.448 C 495.785 15.267, 492.062 12.362, 489.379 10.992 L 484.500 8.500 257.500 8.307 C 48.354 8.130, 30.107 8.245, 25.500 9.774 M 267.125 35.875 C 265.302 37.698, 230 141.659, 230 145.203 C 230 152.453, 238.539 156.510, 244.285 151.990 C 246.408 150.320, 249.808 141.075, 264.420 97.240 C 274.089 68.233, 282 43.242, 282 41.704 C 282 37.459, 277.980 34, 273.045 34 C 270.423 34, 268.340 34.660, 267.125 35.875 M 177.417 66.128 C 155.021 88.525, 153 90.829, 153 93.975 C 153 97.115, 154.992 99.402, 176.631 121.111 C 192.320 136.849, 201.142 144.985, 202.881 145.318 C 209.235 146.532, 215.077 140.478, 213.542 134.269 C 213.108 132.518, 205.911 124.520, 193.955 112.505 L 175.053 93.511 194.666 73.808 L 214.279 54.106 213.671 50.363 C 212.899 45.605, 210.385 43.099, 205.607 42.324 L 201.834 41.711 177.417 66.128 M 303.020 43.284 C 300.164 44.729, 298.036 48.411, 298.015 51.943 C 298.004 53.789, 302.756 59.163, 317.474 73.948 L 336.947 93.511 318.045 112.505 C 306.089 124.520, 298.892 132.518, 298.458 134.269 C 296.923 140.478, 302.765 146.532, 309.119 145.318 C 310.858 144.985, 319.680 136.849, 335.369 121.111 C 357.008 99.402, 359 97.115, 359 93.975 C 359 90.830, 356.987 88.533, 334.727 66.273 C 309.232 40.778, 308.715 40.403, 303.020 43.284 M 54.077 172.589 C 50.028 175.996, 49.748 181.839, 53.455 185.545 C 55.656 187.747, 56.743 188, 64 188 C 71.257 188, 72.344 187.747, 74.545 185.545 C 78.252 181.839, 77.972 175.996, 73.923 172.589 C 71.269 170.355, 69.907 170, 64 170 C 58.093 170, 56.731 170.355, 54.077 172.589 M 107.357 170.981 C 101.144 173.519, 100.327 182.429, 105.913 186.718 C 107.124 187.647, 123.550 187.944, 175.161 187.968 L 242.822 188 245.411 184.923 C 248.664 181.057, 248.726 176.956, 245.587 173.306 L 243.174 170.500 176.337 170.303 C 139.577 170.194, 108.536 170.499, 107.357 170.981 M 269.357 170.971 C 263.819 173.258, 262.475 180.034, 266.589 184.923 L 269.178 188 302.666 188 L 336.154 188 339.200 184.954 C 341.823 182.331, 342.164 181.400, 341.655 178.263 C 341.330 176.259, 340.138 173.693, 339.005 172.560 C 337.020 170.573, 335.787 170.493, 304.223 170.293 C 286.226 170.179, 270.536 170.485, 269.357 170.971 M 53.455 215.455 C 51.693 217.217, 51.009 218.980, 51.032 221.705 C 51.088 228.400, 54.715 231, 64 231 C 73.285 231, 76.912 228.400, 76.968 221.705 C 76.991 218.980, 76.307 217.217, 74.545 215.455 C 72.344 213.253, 71.257 213, 64 213 C 56.743 213, 55.656 213.253, 53.455 215.455 M 130.455 215.455 C 128.013 217.896, 127.203 222.758, 128.621 226.455 C 130.347 230.952, 131.104 231, 200.385 231 C 241.342 231, 266.849 230.628, 268.483 230.006 C 271.604 228.820, 274.033 223.624, 273.288 219.727 C 272.997 218.203, 271.627 216.065, 270.244 214.977 C 267.796 213.052, 265.960 213, 200.320 213 L 132.909 213 130.455 215.455 M 292.455 215.455 C 289.733 218.176, 289.118 224.269, 291.282 227.087 C 294.167 230.845, 295.981 231, 336.984 231 C 384.434 231, 384 231.089, 384 221.373 C 384 219.029, 383.207 217.116, 381.545 215.455 L 379.091 213 337 213 L 294.909 213 292.455 215.455 M 403.455 215.455 C 401.793 217.116, 401 219.029, 401 221.373 C 401 230.507, 402.557 231, 431.374 231 L 454.847 231 457.923 228.411 C 461.972 225.004, 462.252 219.161, 458.545 215.455 L 456.091 213 431 213 L 405.909 213 403.455 215.455 M 53.073 258.635 C 50.260 262.211, 50.401 267.192, 53.413 270.694 C 55.692 273.343, 56.285 273.500, 64 273.500 C 71.715 273.500, 72.308 273.343, 74.587 270.694 C 77.599 267.192, 77.740 262.211, 74.927 258.635 C 72.967 256.143, 72.375 256, 64 256 C 55.625 256, 55.033 256.143, 53.073 258.635 M 104.455 258.455 C 99.304 263.605, 102.514 272.091, 110.138 273.480 C 111.987 273.817, 142.320 273.959, 177.545 273.796 C 249.073 273.465, 246.204 273.759, 247.542 266.629 C 248.252 262.843, 246.131 257.648, 243.455 256.621 C 242.565 256.280, 211.478 256, 174.373 256 L 106.909 256 104.455 258.455 M 267.262 257.529 C 262.074 261.163, 263.778 270.561, 270.012 272.694 C 274.543 274.244, 329.844 274.449, 335.294 272.935 C 341.944 271.089, 343.947 262.947, 338.975 257.975 C 337.086 256.086, 335.522 256, 303.223 256 C 274.534 256, 269.116 256.230, 267.262 257.529 M 54.077 300.589 C 50.028 303.996, 49.748 309.839, 53.455 313.545 C 55.656 315.747, 56.743 316, 64 316 C 71.257 316, 72.344 315.747, 74.545 313.545 C 78.252 309.839, 77.972 303.996, 73.923 300.589 C 71.269 298.355, 69.907 298, 64 298 C 58.093 298, 56.731 298.355, 54.077 300.589 M 132.500 299.155 C 127.279 302.011, 126.238 309.329, 130.455 313.545 L 132.909 316 200.320 316 C 265.960 316, 267.796 315.948, 270.244 314.023 C 273.210 311.690, 274.176 307.803, 272.784 303.809 C 270.713 297.870, 272.314 297.997, 200.300 298.030 C 154.607 298.052, 133.889 298.395, 132.500 299.155 M 293.077 300.589 C 289.028 303.996, 288.748 309.839, 292.455 313.545 L 294.909 316 337 316 L 379.091 316 381.545 313.545 C 383.207 311.884, 384 309.971, 384 307.627 C 384 297.903, 384.478 298, 336.626 298 L 296.153 298 293.077 300.589 M 405.500 299.208 C 400.322 302.178, 399.293 309.384, 403.455 313.545 L 405.909 316 431 316 L 456.091 316 458.545 313.545 C 462.252 309.839, 461.972 303.996, 457.923 300.589 L 454.847 298 431.173 298.030 C 415.250 298.051, 406.845 298.436, 405.500 299.208" stroke="none" fill="#18316d" fill-rule="evenodd"/><path d="M 270.271 35.095 C 269.086 35.534, 267.396 36.992, 266.515 38.336 C 264.236 41.814, 231 141.900, 231 145.284 C 231 151.450, 239.109 155.200, 243.902 151.250 C 245.441 149.982, 250.843 135.041, 263.513 97.011 C 273.131 68.142, 281 43.358, 281 41.935 C 281 37.358, 274.814 33.415, 270.271 35.095 M 177.773 66.773 C 155.995 88.552, 154 90.834, 154 93.972 C 154 97.100, 155.934 99.343, 176.250 119.774 C 188.488 132.081, 199.715 142.791, 201.200 143.575 C 205.115 145.641, 206.797 145.357, 210.077 142.077 C 215.594 136.560, 215.091 135.715, 193.283 113.807 L 173.566 94 193.283 74.193 C 210.769 56.627, 213 54.020, 213 51.148 C 213 46.792, 209.192 43, 204.819 43 C 201.881 43, 199.117 45.429, 177.773 66.773 M 301.455 45.455 C 299.859 47.050, 299 49.043, 299 51.148 C 299 54.020, 301.231 56.627, 318.717 74.193 L 338.434 94 318.717 113.807 C 296.909 135.715, 296.406 136.560, 301.923 142.077 C 305.203 145.357, 306.885 145.641, 310.800 143.575 C 312.285 142.791, 323.512 132.081, 335.750 119.774 C 356.066 99.343, 358 97.100, 358 93.972 C 358 90.834, 356.005 88.552, 334.227 66.773 C 312.883 45.429, 310.119 43, 307.181 43 C 305.040 43, 303.060 43.849, 301.455 45.455 M 54.635 173.073 C 51.115 175.841, 50.956 181.671, 54.314 184.826 C 56.267 186.660, 57.804 187, 64.140 187 C 70.699 187, 71.927 186.706, 73.826 184.686 C 76.997 181.310, 76.777 175.756, 73.365 173.073 C 71.292 171.442, 69.295 171, 64 171 C 58.705 171, 56.708 171.442, 54.635 173.073 M 54.174 216.314 C 51.003 219.690, 51.223 225.244, 54.635 227.927 C 56.708 229.558, 58.705 230, 64 230 C 72.616 230, 76 227.773, 76 222.102 C 76 215.986, 73.024 214, 63.860 214 C 57.301 214, 56.073 214.294, 54.174 216.314 M 56.500 257.155 C 51.670 259.796, 50.459 265.875, 53.912 270.139 C 55.639 272.272, 56.613 272.500, 64 272.500 C 71.387 272.500, 72.361 272.272, 74.088 270.139 C 77.514 265.908, 76.476 259.815, 71.928 257.463 C 68.628 255.757, 59.394 255.572, 56.500 257.155 M 54.635 301.073 C 51.115 303.841, 50.956 309.671, 54.314 312.826 C 56.267 314.660, 57.804 315, 64.140 315 C 70.699 315, 71.927 314.706, 73.826 312.686 C 76.997 309.310, 76.777 303.756, 73.365 301.073 C 71.292 299.442, 69.295 299, 64 299 C 58.705 299, 56.708 299.442, 54.635 301.073" stroke="none" fill="#ffffff" fill-rule="evenodd"/><path d="M 192 112.500 C 202.164 122.675, 210.705 131, 210.980 131 C 211.255 131, 203.164 122.675, 193 112.500 C 182.836 102.325, 174.295 94, 174.020 94 C 173.745 94, 181.836 102.325, 192 112.500 M 318.990 112.750 L 300.500 131.500 319.250 113.010 C 336.671 95.831, 338.452 94, 337.740 94 C 337.597 94, 329.159 102.438, 318.990 112.750 M 61.750 187.706 C 62.987 187.944, 65.013 187.944, 66.250 187.706 C 67.487 187.467, 66.475 187.272, 64 187.272 C 61.525 187.272, 60.513 187.467, 61.750 187.706 M 61.750 315.706 C 62.987 315.944, 65.013 315.944, 66.250 315.706 C 67.487 315.467, 66.475 315.272, 64 315.272 C 61.525 315.272, 60.513 315.467, 61.750 315.706" stroke="none" fill="#c1c0bf" fill-rule="evenodd"/><path d="M 193 112.500 C 203.164 122.675, 211.705 131, 211.980 131 C 212.255 131, 204.164 122.675, 194 112.500 C 183.836 102.325, 175.295 94, 175.020 94 C 174.745 94, 182.836 102.325, 193 112.500 M 317.990 112.750 L 299.500 131.500 318.250 113.010 C 335.671 95.831, 337.452 94, 336.740 94 C 336.597 94, 328.159 102.438, 317.990 112.750 M 141.750 170.750 C 160.037 170.902, 189.962 170.902, 208.250 170.750 C 226.537 170.597, 211.575 170.472, 175 170.472 C 138.425 170.472, 123.462 170.597, 141.750 170.750 M 286.750 170.748 C 295.688 170.914, 310.313 170.914, 319.250 170.748 C 328.188 170.582, 320.875 170.447, 303 170.447 C 285.125 170.447, 277.813 170.582, 286.750 170.748 M 338.286 173.301 C 339.504 174.566, 340.685 175.469, 340.911 175.307 C 341.494 174.888, 337.856 171, 336.881 171 C 336.436 171, 337.068 172.035, 338.286 173.301 M 247.232 179 C 247.232 180.925, 247.438 181.713, 247.689 180.750 C 247.941 179.787, 247.941 178.213, 247.689 177.250 C 247.438 176.287, 247.232 177.075, 247.232 179 M 264.232 179 C 264.232 180.925, 264.438 181.713, 264.689 180.750 C 264.941 179.787, 264.941 178.213, 264.689 177.250 C 264.438 176.287, 264.232 177.075, 264.232 179 M 454.083 213.303 C 454.313 213.469, 455.850 214.396, 457.500 215.362 L 460.500 217.119 458.139 215.059 C 456.841 213.927, 455.303 213, 454.723 213 C 454.142 213, 453.854 213.136, 454.083 213.303 M 316.250 230.749 C 327.663 230.909, 346.338 230.909, 357.750 230.749 C 369.163 230.588, 359.825 230.457, 337 230.457 C 314.175 230.457, 304.838 230.588, 316.250 230.749 M 418.750 230.747 C 425.488 230.920, 436.512 230.920, 443.250 230.747 C 449.988 230.574, 444.475 230.432, 431 230.432 C 417.525 230.432, 412.012 230.574, 418.750 230.747 M 61.250 273.716 C 62.763 273.945, 65.237 273.945, 66.750 273.716 C 68.263 273.487, 67.025 273.300, 64 273.300 C 60.975 273.300, 59.737 273.487, 61.250 273.716 M 142.323 273.750 C 160.375 273.902, 189.625 273.902, 207.323 273.749 C 225.020 273.596, 210.250 273.471, 174.500 273.472 C 138.750 273.472, 124.270 273.597, 142.323 273.750 M 287.750 273.748 C 296.137 273.915, 309.863 273.915, 318.250 273.748 C 326.637 273.581, 319.775 273.444, 303 273.444 C 286.225 273.444, 279.363 273.581, 287.750 273.748 M 167.323 298.750 C 185.925 298.902, 216.075 298.902, 234.323 298.749 C 252.570 298.597, 237.350 298.472, 200.500 298.472 C 163.650 298.472, 148.720 298.597, 167.323 298.750 M 316.250 298.749 C 327.663 298.909, 346.338 298.909, 357.750 298.749 C 369.163 298.588, 359.825 298.457, 337 298.457 C 314.175 298.457, 304.838 298.588, 316.250 298.749 M 418.750 298.747 C 425.488 298.920, 436.512 298.920, 443.250 298.747 C 449.988 298.574, 444.475 298.432, 431 298.432 C 417.525 298.432, 412.012 298.574, 418.750 298.747 M 131.750 349.750 C 200.088 349.892, 311.913 349.892, 380.250 349.750 C 448.588 349.608, 392.675 349.492, 256 349.492 C 119.325 349.492, 63.413 349.608, 131.750 349.750" stroke="none" fill="#1c346c" fill-rule="evenodd"/></svg>